<?xml version="1.0" encoding="utf-8"?>
<!-- Generator: Adobe Illustrator 23.0.6, SVG Export Plug-In . SVG Version: 6.00 Build 0)  -->
<svg version="1.1" id="Layer_1" xmlns="http://www.w3.org/2000/svg" xmlns:xlink="http://www.w3.org/1999/xlink" x="0px" y="0px"
	 viewBox="0 0 32.6 31.8" style="enable-background:new 0 0 32.6 31.8;" xml:space="preserve">
<style type="text/css">
	.st0{fill:#39AAFF;}
</style>
<title>Github</title>
<path class="st0" d="M15.9,0C7.1,0,0,7.1,0,15.9s7.1,15.9,15.9,15.9s15.9-7.1,15.9-15.9S24.7,0,15.9,0z M30.1,18.4
	c-0.5,0-0.9-0.1-1.3-0.2c-0.7-0.2-1.3-0.4-2-0.1c-0.2,0.1-0.7,0.1-1.2,0.2c-2,0.3-4.2,0.6-4.2,2c0,0.3-0.3,0.9-0.5,1.5
	c-0.5,1.2-1.2,2.8-0.5,4c0.7,1.3,1.9,1.8,2.6,2c0.2,0.1,0.5,0.2,0.6,0.2c0,0,0.1,0,0.1,0.1c-2.3,1.4-5,2.3-7.8,2.3
	c-2.3,0-4.4-0.5-6.4-1.5c0.2-1.1,0.2-2.7-0.2-5v-0.1c-0.1-0.7-0.8-0.9-1.2-1c-0.3-0.1-0.6-0.1-0.8-0.3c-0.7-0.5-1.8-1.2-2.9-1.6
	c0.3-0.2,0.7-0.5,1-0.9c0.7-0.9,1.1-1.4,2.1-1.6c0.4-0.1,0.6,0,0.7,0.1c0.3,0.2,0.5,0.6,0.6,1.3c0.1,0.8,0.7,1,0.9,1h0
	c1.2,0,2-2.8,2-2.9c0.1-0.5,0.2-0.8,0.2-1.2c0.1-0.6,0.1-1.2,0.5-2s0.5-0.9,0.8-1c0.2,0,0.4-0.1,0.6-0.2c1.1-0.5,1-1.8,1-2.9
	c0-0.4,0-0.9,0-1.3c0-0.5-0.1-0.9-0.3-1.2c-0.4-0.5-1-0.5-1.5-0.5c-0.4,0-0.8,0-1.1-0.2C10.8,6.9,9.6,7,8.4,7c-0.5,0-1,0-1.4,0
	C6.2,7,5.8,6.3,5.5,6c1.1-1.2,2.4-2.1,3.8-2.9c0.2,0.6,0.6,1.2,1.5,1.4c0.8,0.3,1.6,0.2,2.2,0.2c0.2,0,0.5,0,0.6,0
	c0.5,0.5,1.8,1,2.9,1c0.6,0,1.1-0.1,1.4-0.4c0.4-0.3,0.7-0.7,1-1.1c0.2-0.3,0.6-0.8,0.8-0.8c0.7,0.1,2,0.1,2.7-0.4
	c2.3,1.1,4.3,2.9,5.7,5c-0.4,0.9-1.1,2.2-1.4,2.5c-0.5,0.4-1.3,0.6-1.5,0.6l-0.1,0l-0.3,0.1c-0.9,0.5-2.2,1.1-2.1,2.6
	c0,0.2,0,0.6-0.1,0.9c-0.1,0.6-0.2,1.3,0.2,1.8c0.2,0.3,0.6,0.5,1.1,0.5c0.5,0,1,0.1,1.3,0.1c1.7,0,2.1-0.4,2.3-0.5
	c0.2-0.2,0.4-0.5,0.4-0.8c0-0.2,0-0.5,0-0.7c0-0.6,0-0.6,0.1-0.7c0.3-0.1,0.5-0.1,1,0c0.3,0.1,0.6,0.1,1,0.1c0.2,0,0.3,0,0.5,0
	c0,0.5,0.1,0.9,0.1,1.4C30.4,16.7,30.3,17.6,30.1,18.4L30.1,18.4z"/>
<path class="st0" d="M23.3,11c0.2,0,0.3,0,0.5-0.1c0.4-0.2,1.6-1.6,1.6-2.5c0-0.8-0.7-2.2-1.7-2.4c-0.2-0.1-0.5-0.2-0.9-0.2
	c-0.6,0-1.1,0.3-1.3,0.8c-0.1,0.1-0.1,0.3-0.2,0.4c-0.3,0.5-0.8,1.3,0.1,2.1c0.2,0.2,0.5,0.5,0.7,0.8C22.4,10.6,22.7,11,23.3,11z"/>
</svg>
