<?xml version="1.0" encoding="utf-8"?>
<!-- Generator: Adobe Illustrator 23.0.3, SVG Export Plug-In . SVG Version: 6.00 Build 0)  -->
<svg version="1.1" xmlns="http://www.w3.org/2000/svg" xmlns:xlink="http://www.w3.org/1999/xlink" x="0px" y="0px"
	 viewBox="0 0 503.8 503.8" style="enable-background:new 0 0 503.8 503.8;" xml:space="preserve">
<style type="text/css">
	.st0{display:none;}
	.st1{display:inline;fill:#39AAFF;}
	.st2{fill:#39AAFF;}
	.st3{fill:none;stroke:#39AAFF;stroke-width:44;stroke-linejoin:round;stroke-miterlimit:10;}
</style>
<g id="Logo" class="st0">
	<title>instagram</title>
	<path class="st1" d="M251.9,45.4c67.3,0,75.2,0.3,101.8,1.5c24.6,1.1,37.9,5.2,46.8,8.7c11,4,20.9,10.5,29,18.8
		c8.4,8.1,14.8,18,18.9,29c3.5,8.9,7.5,22.2,8.7,46.8c1.2,26.6,1.5,34.5,1.5,101.8s-0.3,75.2-1.5,101.8c-1.1,24.6-5.2,37.9-8.7,46.8
		c-8.5,22-25.8,39.3-47.8,47.8c-8.9,3.5-22.2,7.5-46.8,8.7c-26.6,1.2-34.5,1.5-101.8,1.5s-75.2-0.3-101.8-1.5
		c-24.6-1.1-37.9-5.2-46.8-8.7c-11-4-20.9-10.5-29-18.9c-8.4-8.1-14.8-18-18.8-29c-3.4-8.9-7.5-22.2-8.7-46.8
		c-1.2-26.6-1.5-34.5-1.5-101.8s0.3-75.2,1.5-101.8c1.1-24.6,5.2-37.9,8.7-46.8c4-11,10.5-20.9,18.8-29c8.1-8.4,18-14.8,29-18.8
		c8.9-3.4,22.2-7.5,46.8-8.7C176.7,45.6,184.7,45.3,251.9,45.4 M252,0c-68.4,0-77,0.3-103.9,1.5S102.9,7,86.9,13.2
		c-16.8,6.3-32,16.2-44.6,29.1C29.5,54.9,19.5,70.1,13.2,86.9C7,102.9,2.7,121.2,1.5,148S0,183.5,0,251.9s0.3,77,1.5,103.9
		s5.5,45.1,11.7,61.1c6.3,16.8,16.2,32,29.1,44.6c12.6,12.8,27.8,22.7,44.6,29.1c16,6.2,34.3,10.5,61.1,11.7s35.4,1.5,103.9,1.5
		s77-0.3,103.9-1.5s45.1-5.5,61.1-11.7c33.9-13.1,60.6-39.8,73.7-73.7c6.2-16,10.5-34.3,11.7-61.1s1.5-35.5,1.5-103.9
		s-0.3-77-1.5-103.9s-5.5-45.1-11.7-61.1c-6.3-16.8-16.2-32-29-44.6C449,29.5,433.8,19.6,417,13.2C401,7,382.7,2.7,355.9,1.5
		S320.3,0,252,0L252,0z"/>
	<path class="st1" d="M251.9,122.6c-71.4,0-129.4,57.9-129.4,129.4s57.9,129.4,129.4,129.4S381.3,323.5,381.3,252l0,0
		C381.3,180.5,323.4,122.6,251.9,122.6L251.9,122.6z M251.9,335.9c-46.4,0-84-37.6-84-84s37.6-84,84-84s84,37.6,84,84
		S298.3,335.9,251.9,335.9L251.9,335.9z"/>
	<circle class="st1" cx="386.4" cy="117.4" r="30.2"/>
</g>
<g id="Layer_2">
	<g>
		<path class="st2" d="M453.8,95.3c3.2,0,6,2.8,6,6v301.4c0,3.2-2.8,6-6,6H50c-3.2,0-6-2.8-6-6V101.3c0-3.2,2.8-6,6-6H453.8
			 M453.8,51.3H50c-27.5,0-50,22.5-50,50v301.4c0,27.5,22.5,50,50,50h403.8c27.5,0,50-22.5,50-50V101.3
			C503.8,73.8,481.3,51.3,453.8,51.3L453.8,51.3z"/>
	</g>
	<polyline class="st3" points="27,82 251.9,276 470,82 	"/>
</g>
</svg>
