<svg xmlns="http://www.w3.org/2000/svg" xmlns:xlink="http://www.w3.org/1999/xlink" xml:space="preserve" version="1.1" style="shape-rendering:geometricPrecision;text-rendering:geometricPrecision;image-rendering:optimizeQuality;" viewBox="0 0 1.009 1.26125" x="0px" y="0px" fill-rule="evenodd" clip-rule="evenodd"><defs><style type="text/css">
   
    .fil0 {fill:none}
    .fil1 {fill:black}
   
  </style></defs><g><g><path class="fil0" d="M0 1.009c0,-0.337 0,-0.673 0,-1.009 0.336,0 0.672,0 1.009,0 0,0.336 0,0.672 0,1.009 -0.337,0 -0.673,0 -1.009,0z"/><path class="fil1" d="M0 0.216l1.009 0 0 -0.155c0,-0.017 -0.007,-0.032 -0.018,-0.043 -0.011,-0.011 -0.027,-0.018 -0.043,-0.018l-0.887 0c-0.017,0 -0.032,0.007 -0.043,0.018 -0.011,0.011 -0.018,0.026 -0.018,0.043l0 0.155zm1.009 0.072l-1.009 0 0 0.667c0,0.014 0.006,0.028 0.016,0.038 0.01,0.01 0.023,0.016 0.038,0.016l0.901 0c0.014,0 0.028,-0.006 0.038,-0.016 0.01,-0.01 0.016,-0.024 0.016,-0.038l0 -0.667zm-0.501 0.365l0 -0.001 0 0 0.05 -0.049 -0.068 -0.018 -0.067 -0.018 0.036 0.135 0.049 -0.049zm0.067 0.022l0.078 0.077c0.012,0.013 0.012,0.032 0,0.045 -0.013,0.012 -0.033,0.012 -0.045,0l-0.077 -0.078 -0.066 0.066c-0.012,0.012 -0.032,0.012 -0.045,0 -0.004,-0.004 -0.007,-0.01 -0.008,-0.016l-0.064 -0.239c-0.005,-0.016 0.005,-0.034 0.022,-0.038 0.006,-0.002 0.011,-0.001 0.017,0l0.24 0.064c0.017,0.005 0.026,0.022 0.022,0.039 -0.001,0.005 -0.004,0.01 -0.008,0.014l-0.066 0.066zm-0.557 -0.657l0 0zm0.203 0.059l0 0c0.017,0 0.031,0.014 0.031,0.031l0 0c0,0.017 -0.014,0.032 -0.031,0.032l0 0c-0.018,0 -0.032,-0.015 -0.032,-0.032l0 0c0,-0.017 0.014,-0.031 0.032,-0.031zm0.189 0l0.378 0c0.017,0 0.032,0.014 0.032,0.031l0 0c0,0.017 -0.015,0.032 -0.032,0.032l-0.378 0c-0.018,0 -0.032,-0.015 -0.032,-0.032l0 0c0,-0.017 0.014,-0.031 0.032,-0.031zm-0.095 0l0 0c0.018,0 0.032,0.014 0.032,0.031l0 0c0,0.017 -0.014,0.032 -0.032,0.032l0 0c-0.017,0 -0.031,-0.015 -0.031,-0.032l0 0c0,-0.017 0.014,-0.031 0.031,-0.031z"/></g></g><text x="0" y="16.009" fill="#000000" font-size="5px" font-weight="bold" font-family="'Helvetica Neue', Helvetica, Arial-Unicode, Arial, Sans-serif">Created by Deemak Daksina</text><text x="0" y="21.009" fill="#000000" font-size="5px" font-weight="bold" font-family="'Helvetica Neue', Helvetica, Arial-Unicode, Arial, Sans-serif">from the Noun Project</text></svg>