<svg xmlns="http://www.w3.org/2000/svg" data-name="Layer 1" viewBox="0 0 100 125" x="0px" y="0px"><title>universal lanjutan 2 jadi</title><path d="M50,20A30,30,0,1,0,80,50,30,30,0,0,0,50,20ZM48.88,59.18l-1.22,1.21a5.71,5.71,0,0,1-8,0,5.63,5.63,0,0,1,0-8l4.48-4.45c2.79-2.77,6-3.16,8.15-1A1.49,1.49,0,1,1,50.17,49c-1.27-1.26-3,.09-4,1L41.73,54.5a2.66,2.66,0,0,0,0,3.77,2.73,2.73,0,0,0,3.83,0l1.22-1.21a1.49,1.49,0,0,1,2.1,2.12Zm11.49-11.4-4.78,4.74a6.57,6.57,0,0,1-4.5,2.21,4.71,4.71,0,0,1-3.35-1.49,1.49,1.49,0,0,1,2.1-2.12c.44.43,1.46,1.45,3.65-.72l4.78-4.75a2.65,2.65,0,0,0,0-3.77c-1-.95-2.42-1.4-3.53-.3l-1.52,1.51A1.49,1.49,0,1,1,51.12,41l1.52-1.51c2.15-2.14,5.4-2,7.73.3a5.63,5.63,0,0,1,0,8Z"/><text x="0" y="115" fill="#000000" font-size="5px" font-weight="bold" font-family="'Helvetica Neue', Helvetica, Arial-Unicode, Arial, Sans-serif">Created by Graphic Enginer</text><text x="0" y="120" fill="#000000" font-size="5px" font-weight="bold" font-family="'Helvetica Neue', Helvetica, Arial-Unicode, Arial, Sans-serif">from the Noun Project</text></svg>