<?xml version="1.0" encoding="utf-8"?>
<!-- Generator: Adobe Illustrator 23.0.6, SVG Export Plug-In . SVG Version: 6.00 Build 0)  -->
<svg version="1.1" id="Layer_1" xmlns="http://www.w3.org/2000/svg" xmlns:xlink="http://www.w3.org/1999/xlink" x="0px" y="0px"
	 viewBox="0 0 32.6 31.8" style="enable-background:new 0 0 32.6 31.8;" xml:space="preserve">
<style type="text/css">
	.st0{fill:none;}
	.st1{fill-rule:evenodd;clip-rule:evenodd;fill:#39AAFF;}
</style>
<title>Github</title>
<path class="st0" d="M0,31.9C0,21.2,0,10.6,0,0c10.6,0,21.2,0,31.9,0c0,10.6,0,21.2,0,31.9C21.2,31.9,10.6,31.9,0,31.9z"/>
<path class="st1" d="M0,6.8h31.9V1.9c0-0.5-0.2-1-0.6-1.4C30.9,0.2,30.4,0,29.9,0h-28c-0.5,0-1,0.2-1.4,0.6S0,1.4,0,1.9
	C0,1.9,0,6.8,0,6.8z M31.9,9.1H0v21.1c0,0.4,0.2,0.9,0.5,1.2c0.3,0.3,0.7,0.5,1.2,0.5h28.5c0.4,0,0.9-0.2,1.2-0.5
	c0.3-0.3,0.5-0.8,0.5-1.2C31.9,30.2,31.9,9.1,31.9,9.1z M16,20.6L16,20.6L16,20.6l1.6-1.6l-2.1-0.6l-2.1-0.6l1.1,4.3
	C14.5,22.2,16,20.6,16,20.6z M18.2,21.3l2.5,2.4c0.4,0.4,0.4,1,0,1.4c-0.4,0.4-1,0.4-1.4,0l-2.4-2.5l-2.1,2.1c-0.4,0.4-1,0.4-1.4,0
	c-0.1-0.1-0.2-0.3-0.3-0.5l-2-7.5c-0.2-0.5,0.2-1.1,0.7-1.2c0.2-0.1,0.3,0,0.5,0l7.6,2c0.5,0.2,0.8,0.7,0.7,1.2
	c0,0.2-0.1,0.3-0.3,0.4C20.2,19.2,18.2,21.3,18.2,21.3z M0.6,0.6L0.6,0.6z M7,2.4L7,2.4c0.5,0,1,0.4,1,1l0,0c0,0.5-0.4,1-1,1l0,0
	c-0.6,0-1-0.5-1-1l0,0C6,2.9,6.4,2.4,7,2.4z M12.9,2.4h11.9c0.5,0,1,0.4,1,1l0,0c0,0.5-0.5,1-1,1H12.9c-0.6,0-1-0.5-1-1l0,0
	C11.9,2.9,12.4,2.4,12.9,2.4z M9.9,2.4L9.9,2.4c0.6,0,1,0.4,1,1l0,0c0,0.5-0.4,1-1,1l0,0c-0.5,0-1-0.5-1-1l0,0
	C9,2.9,9.4,2.4,9.9,2.4z"/>
</svg>
