<?xml version="1.0" encoding="utf-8"?>
<!-- Generator: Adobe Illustrator 23.0.6, SVG Export Plug-In . SVG Version: 6.00 Build 0)  -->
<svg version="1.1" id="Layer_1" xmlns="http://www.w3.org/2000/svg" xmlns:xlink="http://www.w3.org/1999/xlink" x="0px" y="0px"
	 viewBox="0 0 100 100" style="enable-background:new 0 0 100 100;" xml:space="preserve">
<style type="text/css">
	.st0{fill:#39AAFF;}
</style>
<title>Github</title>
<g>
	<path class="st0" d="M26.2,71c1.5,0,2.8,1.2,2.8,2.8v21.5c0,1.5-1.2,2.8-2.8,2.8H4.8C3.2,98,2,96.8,2,95.2V73.8
		C2,72.2,3.2,71,4.8,71H26.2 M26.2,69H4.8C2.1,69,0,71.1,0,73.8v21.5c0,2.6,2.1,4.8,4.8,4.8h21.5c2.6,0,4.8-2.1,4.8-4.8V73.8
		C31,71.1,28.9,69,26.2,69L26.2,69z"/>
</g>
<g>
	<path class="st0" d="M26.2,36.5c1.5,0,2.8,1.2,2.8,2.8v21.5c0,1.5-1.2,2.8-2.8,2.8H4.8c-1.5,0-2.8-1.2-2.8-2.8V39.3
		c0-1.5,1.2-2.8,2.8-2.8H26.2 M26.2,34.5H4.8c-2.6,0-4.8,2.1-4.8,4.8v21.5c0,2.6,2.1,4.8,4.8,4.8h21.5c2.6,0,4.8-2.1,4.8-4.8V39.3
		C31,36.6,28.9,34.5,26.2,34.5L26.2,34.5z"/>
</g>
<g>
	<path class="st0" d="M26.2,2C27.8,2,29,3.2,29,4.8v21.5c0,1.5-1.2,2.8-2.8,2.8H4.8C3.2,29,2,27.8,2,26.2V4.8C2,3.2,3.2,2,4.8,2
		H26.2 M26.2,0H4.8C2.1,0,0,2.1,0,4.8v21.5C0,28.9,2.1,31,4.8,31h21.5c2.6,0,4.8-2.1,4.8-4.8V4.8C31,2.1,28.9,0,26.2,0L26.2,0z"/>
</g>
<g>
	<path class="st0" d="M60.7,71c1.5,0,2.8,1.2,2.8,2.8v21.5c0,1.5-1.2,2.8-2.8,2.8H39.3c-1.5,0-2.8-1.2-2.8-2.8V73.8
		c0-1.5,1.2-2.8,2.8-2.8H60.7 M60.7,69H39.3c-2.6,0-4.8,2.1-4.8,4.8v21.5c0,2.6,2.1,4.8,4.8,4.8h21.5c2.6,0,4.8-2.1,4.8-4.8V73.8
		C65.5,71.1,63.4,69,60.7,69L60.7,69z"/>
</g>
<g>
	<path class="st0" d="M61.2,36c1.5,0,2.8,1.2,2.8,2.8v22.5c0,1.5-1.2,2.8-2.8,2.8H38.8c-1.5,0-2.8-1.2-2.8-2.8V38.8
		c0-1.5,1.2-2.8,2.8-2.8H61.2 M61.2,34H38.8c-2.6,0-4.8,2.1-4.8,4.8v22.5c0,2.6,2.1,4.8,4.8,4.8h22.5c2.6,0,4.8-2.1,4.8-4.8V38.8
		C66,36.1,63.9,34,61.2,34L61.2,34z"/>
</g>
<g>
	<path class="st0" d="M60.7,2c1.5,0,2.8,1.2,2.8,2.8v21.5c0,1.5-1.2,2.8-2.8,2.8H39.3c-1.5,0-2.8-1.2-2.8-2.8V4.8
		c0-1.5,1.2-2.8,2.8-2.8H60.7 M60.7,0H39.3c-2.6,0-4.8,2.1-4.8,4.8v21.5c0,2.6,2.1,4.8,4.8,4.8h21.5c2.6,0,4.8-2.1,4.8-4.8V4.8
		C65.5,2.1,63.4,0,60.7,0L60.7,0z"/>
</g>
<g>
	<path class="st0" d="M95.2,71c1.5,0,2.8,1.2,2.8,2.8v21.5c0,1.5-1.2,2.8-2.8,2.8H73.8c-1.5,0-2.8-1.2-2.8-2.8V73.8
		c0-1.5,1.2-2.8,2.8-2.8H95.2 M95.2,69H73.8c-2.6,0-4.8,2.1-4.8,4.8v21.5c0,2.6,2.1,4.8,4.8,4.8h21.5c2.6,0,4.8-2.1,4.8-4.8V73.8
		C100,71.1,97.9,69,95.2,69L95.2,69z"/>
</g>
<g>
	<path class="st0" d="M73.8,64c-2.1,0-3.8-1.7-3.8-3.8V38.8c0-2.1,1.7-3.8,3.8-3.8h21.5c2.1,0,3.8,1.7,3.8,3.8v21.5
		c0,2.1-1.7,3.8-3.8,3.8H73.8z"/>
	<path class="st0" d="M95.2,36c1.5,0,2.8,1.2,2.8,2.8v21.5c0,1.5-1.2,2.8-2.8,2.8H73.8c-1.5,0-2.8-1.2-2.8-2.8V38.8
		c0-1.5,1.2-2.8,2.8-2.8H95.2 M95.2,34H73.8c-2.6,0-4.8,2.1-4.8,4.8v21.5c0,2.6,2.1,4.8,4.8,4.8h21.5c2.6,0,4.8-2.1,4.8-4.8V38.8
		C100,36.1,97.9,34,95.2,34L95.2,34z"/>
</g>
<g>
	<path class="st0" d="M95.2,2C96.8,2,98,3.2,98,4.8v21.5c0,1.5-1.2,2.8-2.8,2.8H73.8c-1.5,0-2.8-1.2-2.8-2.8V4.8
		C71,3.2,72.2,2,73.8,2H95.2 M95.2,0H73.8C71.1,0,69,2.1,69,4.8v21.5c0,2.6,2.1,4.8,4.8,4.8h21.5c2.6,0,4.8-2.1,4.8-4.8V4.8
		C100,2.1,97.9,0,95.2,0L95.2,0z"/>
</g>
</svg>
