<?xml version="1.0" encoding="utf-8"?>
<!-- Generator: Adobe Illustrator 23.1.0, SVG Export Plug-In . SVG Version: 6.00 Build 0)  -->
<svg version="1.1" id="Layer_1" xmlns="http://www.w3.org/2000/svg" xmlns:xlink="http://www.w3.org/1999/xlink" x="0px" y="0px"
	 viewBox="0 0 32.6 31.8" style="enable-background:new 0 0 32.6 31.8;" xml:space="preserve">
<style type="text/css">
	.st0{fill:#39AAFF;}
</style>
<title>Github</title>
<g>
	<path class="st0" d="M3.4,29h7.1c0.4,0,0.6-0.3,0.6-0.6v-6c0-0.3-0.3-0.6-0.6-0.6H3.4c-0.4,0-0.6,0.3-0.6,0.6v6
		C2.8,28.8,3.1,29,3.4,29z M4.1,23h5.8v4.8H4.1V23z"/>
	<path class="st0" d="M28.8,21.8H13.7c-0.4,0-0.6,0.3-0.6,0.6v6c0,0.3,0.3,0.6,0.6,0.6h15.1c0.4,0,0.6-0.3,0.6-0.6v-6
		C29.4,22.1,29.1,21.8,28.8,21.8z M28.1,27.8H14.4V23h13.8L28.1,27.8L28.1,27.8z"/>
	<polygon class="st0" points="29.3,14.5 29.3,13.9 21.8,13.9 21.8,14.5 21.8,15.1 29.3,15.1 	"/>
	<polygon class="st0" points="29.3,11.8 29.3,11.3 21.8,11.3 21.8,11.8 21.8,12.4 29.3,12.4 	"/>
	<polygon class="st0" points="29.3,9.2 29.3,8.6 21.8,8.6 21.8,9.2 21.8,9.8 29.3,9.8 	"/>
	<polygon class="st0" points="29.3,6.5 29.3,5.9 21.8,5.9 21.8,6.5 21.8,7.1 29.3,7.1 	"/>
	<polygon class="st0" points="29.3,17.1 29.3,16.6 21.8,16.6 21.8,17.1 21.8,17.8 29.3,17.8 	"/>
	<polygon class="st0" points="29.3,19.8 29.3,19.2 21.8,19.2 21.8,19.8 21.8,20.4 29.3,20.4 	"/>
	<path class="st0" d="M32,0H0.6C0.3,0,0,0.3,0,0.6v2.9v27.7c0,0.3,0.3,0.6,0.6,0.6H32c0.4,0,0.6-0.3,0.6-0.6V3.6V0.6
		C32.6,0.3,32.4,0,32,0z M31.4,30.7H1.3V4.2h30.1V30.7z M4.1,1.2h27.3v1.8H4.1V1.2z M2.8,3H1.3V1.2h1.6V3z"/>
	<path class="st0" d="M2.9,20C2.9,20.1,2.9,20.1,2.9,20C2.9,20.2,3,20.2,3,20.2l0,0c0.1,0,0.1,0.1,0.2,0.1c0,0,0,0,0.1,0
		c0.1,0,0.2,0,0.3,0l0,0h15.5l0,0c0.1,0,0.2,0,0.3,0c0,0,0,0,0.1,0c0.1,0,0.1,0,0.2-0.1l0,0c0,0,0.1,0,0.1-0.1
		c0.1,0,0.1-0.1,0.1-0.1c0,0,0-0.1,0.1-0.1c0,0,0,0,0-0.1V6.5c0,0,0,0,0-0.1s0-0.1-0.1-0.1c0,0-0.1-0.1-0.1-0.1c0,0-0.1,0-0.1-0.1
		l0,0c-0.1,0-0.1,0-0.1-0.1c-0.1,0-0.1,0-0.1,0s-0.1,0-0.1,0s-0.1,0-0.2,0l0,0H3.4l0,0c-0.1,0-0.1,0-0.2,0c-0.1,0-0.1,0-0.1,0
		C3.1,6,3.1,6,3.1,6C3,6.1,3,6.1,3,6.1l0,0c0,0-0.1,0-0.1,0.1c-0.1,0-0.1,0.1-0.1,0.1c0,0,0,0.1-0.1,0.1c0,0,0,0,0,0.1v13.3
		C2.8,19.9,2.8,19.9,2.9,20C2.8,19.9,2.9,20,2.9,20z M17.3,7.1l-6.1,5.2L5.1,7.1H17.3z M5.1,19.2l6.1-5.3l6.1,5.3H5.1z M4.1,7.9
		l6.2,5.3l-6.2,5.3V7.9z M18.3,18.5l-6.2-5.3l6.2-5.3V18.5z"/>
</g>
</svg>
