<?xml version="1.0" encoding="utf-8"?>
<!-- Generator: Adobe Illustrator 23.0.3, SVG Export Plug-In . SVG Version: 6.00 Build 0)  -->
<svg version="1.1" id="Layer_1" xmlns="http://www.w3.org/2000/svg" xmlns:xlink="http://www.w3.org/1999/xlink" x="0px" y="0px"
	 viewBox="0 0 200 200" style="enable-background:new 0 0 200 200;" xml:space="preserve">
<style type="text/css">
	.st0{fill:#39AAFF;}
</style>
<path class="st0" d="M169.8,0H30.2C13.5,0,0,13.5,0,30.2v139.6C0,186.5,13.5,200,30.2,200h139.6c16.7,0,30.2-13.5,30.2-30.2V30.2
	C200,13.5,186.5,0,169.8,0z M64,167.9H33.8V77H64V167.9z M48.9,64.6h-0.2c-10.1,0-16.7-7-16.7-15.7c0-9,6.8-15.8,17.1-15.7
	c10.3,0,16.7,6.8,16.9,15.7C66,57.6,59.4,64.6,48.9,64.6z M172.9,167.9h-30.2v-48.6c0-12.3-4.4-20.6-15.3-20.6
	c-8.3,0-13.3,5.6-15.5,11c-0.8,2-1,4.7-1,7.4v50.8H80.7c0-0.1,0.4-82.4,0-90.9h30.2v12.9c3.9-6.2,11.2-15,27.2-15
	c19.9,0,34.8,13,34.8,40.9V167.9z"/>
</svg>
